<?xml version="1.0" encoding="UTF-8"?>
<svg xmlns="http://www.w3.org/2000/svg" xmlns:xlink="http://www.w3.org/1999/xlink" width="170px" height="39px" viewBox="0 0 169 39" version="1.1">
<g id="surface1">
<path style=" stroke:none;fill-rule:nonzero;fill:rgb(99.215686%,99.215686%,99.215686%);fill-opacity:1;" d="M 141.828125 18.277344 C 141.898438 18.339844 141.898438 18.339844 141.972656 18.402344 C 142.085938 18.503906 142.199219 18.605469 142.3125 18.707031 C 142.328125 18.660156 142.34375 18.613281 142.359375 18.566406 C 142.546875 18.144531 142.9375 17.859375 143.347656 17.671875 C 144.253906 17.332031 145.15625 17.296875 146.113281 17.296875 C 146.171875 17.296875 146.234375 17.296875 146.296875 17.296875 C 146.449219 17.296875 146.601562 17.300781 146.75 17.300781 C 146.753906 19.183594 146.757812 21.070312 146.757812 22.953125 C 146.761719 23.175781 146.761719 23.402344 146.761719 23.625 C 146.761719 23.667969 146.761719 23.714844 146.761719 23.757812 C 146.761719 24.476562 146.761719 25.191406 146.765625 25.910156 C 146.765625 26.644531 146.765625 27.382812 146.765625 28.121094 C 146.769531 28.535156 146.769531 28.945312 146.769531 29.359375 C 146.769531 29.75 146.769531 30.140625 146.769531 30.53125 C 146.769531 30.671875 146.769531 30.816406 146.773438 30.957031 C 146.78125 32.625 146.585938 34.101562 145.777344 35.578125 C 145.730469 35.664062 145.730469 35.664062 145.683594 35.753906 C 144.828125 37.222656 143.273438 38.320312 141.667969 38.769531 C 141.515625 38.808594 141.371094 38.847656 141.21875 38.878906 C 141.144531 38.894531 141.144531 38.894531 141.066406 38.910156 C 140.507812 39.019531 139.957031 39.023438 139.390625 39.019531 C 139.339844 39.019531 139.289062 39.019531 139.238281 39.019531 C 137.554688 39.011719 135.976562 38.714844 134.652344 37.59375 C 134.617188 37.566406 134.578125 37.539062 134.542969 37.507812 C 134.148438 37.199219 133.671875 36.675781 133.597656 36.164062 C 133.59375 35.8125 133.617188 35.605469 133.863281 35.332031 C 134.195312 35.050781 134.558594 34.835938 134.941406 34.632812 C 134.992188 34.605469 135.042969 34.578125 135.097656 34.546875 C 135.144531 34.523438 135.195312 34.496094 135.246094 34.46875 C 135.3125 34.433594 135.3125 34.433594 135.378906 34.398438 C 135.527344 34.34375 135.601562 34.355469 135.746094 34.414062 C 135.839844 34.53125 135.839844 34.53125 135.925781 34.675781 C 136.355469 35.355469 136.925781 35.695312 137.683594 35.914062 C 138.429688 36.078125 139.367188 36.019531 140.0625 35.699219 C 140.136719 35.664062 140.136719 35.664062 140.214844 35.628906 C 140.980469 35.238281 141.460938 34.59375 141.726562 33.773438 C 141.945312 33.03125 141.964844 32.289062 141.957031 31.523438 C 141.953125 31.429688 141.953125 31.335938 141.953125 31.242188 C 141.953125 31.015625 141.949219 30.789062 141.949219 30.5625 C 141.910156 30.601562 141.871094 30.636719 141.828125 30.675781 C 140.65625 31.761719 139.402344 31.972656 137.84375 31.921875 C 136.292969 31.824219 134.953125 30.863281 133.917969 29.757812 C 133.132812 28.839844 132.613281 27.707031 132.34375 26.53125 C 132.328125 26.464844 132.328125 26.464844 132.3125 26.398438 C 132.03125 25.121094 132.046875 23.707031 132.34375 22.433594 C 132.351562 22.390625 132.363281 22.347656 132.375 22.300781 C 132.6875 21.007812 133.308594 19.910156 134.226562 18.949219 C 134.277344 18.898438 134.324219 18.84375 134.375 18.792969 C 136.300781 16.785156 139.691406 16.382812 141.828125 18.277344 Z M 138.253906 20.757812 C 137.339844 21.660156 137.023438 22.960938 137.007812 24.210938 C 137.003906 25.660156 137.199219 27.09375 138.226562 28.199219 C 138.488281 28.445312 138.773438 28.625 139.089844 28.792969 C 139.128906 28.8125 139.164062 28.832031 139.203125 28.855469 C 139.652344 29.066406 140.351562 29.058594 140.820312 28.914062 C 141.398438 28.636719 141.722656 28.15625 141.949219 27.570312 C 142.019531 27.292969 142.019531 27.019531 142.019531 26.734375 C 142.019531 26.683594 142.019531 26.632812 142.019531 26.578125 C 142.023438 26.402344 142.023438 26.230469 142.023438 26.058594 C 142.023438 26 142.023438 25.9375 142.023438 25.878906 C 142.023438 25.5625 142.027344 25.25 142.027344 24.933594 C 142.027344 24.609375 142.03125 24.285156 142.03125 23.964844 C 142.035156 23.714844 142.035156 23.460938 142.035156 23.210938 C 142.035156 23.09375 142.035156 22.972656 142.035156 22.855469 C 142.042969 22.050781 142.050781 21.234375 141.507812 20.582031 C 140.5 19.601562 139.214844 19.855469 138.253906 20.757812 Z M 138.253906 20.757812 "/>
<path style=" stroke:none;fill-rule:nonzero;fill:rgb(89.803922%,14.901961%,16.862746%);fill-opacity:1;" d="M 12.949219 0 C 12.988281 0 13.027344 0 13.070312 0 C 13.160156 0.113281 13.242188 0.234375 13.320312 0.355469 C 13.386719 0.453125 13.386719 0.453125 13.453125 0.554688 C 13.554688 0.734375 13.554688 0.734375 13.554688 0.917969 C 13.597656 0.917969 13.636719 0.917969 13.679688 0.917969 C 13.699219 0.957031 13.71875 1 13.738281 1.039062 C 13.765625 1.09375 13.792969 1.148438 13.820312 1.203125 C 13.859375 1.285156 13.859375 1.285156 13.898438 1.363281 C 13.980469 1.527344 13.980469 1.527344 14.070312 1.675781 C 14.3125 2.089844 14.523438 2.570312 14.621094 3.042969 C 14.644531 3.152344 14.675781 3.261719 14.710938 3.371094 C 14.960938 4.210938 14.972656 5.042969 14.9375 5.914062 C 14.933594 5.964844 14.929688 6.015625 14.929688 6.066406 C 14.914062 6.363281 14.863281 6.621094 14.773438 6.90625 C 14.753906 7.007812 14.734375 7.109375 14.714844 7.210938 C 14.671875 7.4375 14.609375 7.648438 14.523438 7.867188 C 14.453125 8.042969 14.394531 8.226562 14.332031 8.40625 C 14.210938 8.742188 14.082031 9.070312 13.941406 9.398438 C 13.921875 9.441406 13.902344 9.484375 13.886719 9.527344 C 13.808594 9.699219 13.75 9.832031 13.617188 9.964844 C 13.578125 10.089844 13.578125 10.089844 13.554688 10.207031 C 13.515625 10.207031 13.476562 10.207031 13.433594 10.207031 C 13.429688 10.253906 13.421875 10.296875 13.414062 10.34375 C 13.371094 10.519531 13.3125 10.648438 13.226562 10.808594 C 13.195312 10.863281 13.164062 10.917969 13.132812 10.976562 C 13.101562 11.035156 13.070312 11.09375 13.035156 11.152344 C 13.003906 11.210938 12.96875 11.273438 12.9375 11.332031 C 12.652344 11.847656 12.363281 12.359375 12.070312 12.867188 C 11.910156 13.144531 11.785156 13.425781 11.671875 13.726562 C 11.613281 13.871094 11.546875 14.015625 11.480469 14.160156 C 11.371094 14.40625 11.304688 14.648438 11.246094 14.914062 C 11.207031 14.914062 11.167969 14.914062 11.125 14.914062 C 11.125 14.949219 11.128906 14.984375 11.128906 15.019531 C 11.128906 15.066406 11.132812 15.113281 11.132812 15.160156 C 11.132812 15.207031 11.136719 15.25 11.136719 15.296875 C 11.125 15.464844 11.125 15.464844 11.066406 15.683594 C 10.976562 16.019531 10.984375 16.355469 10.984375 16.699219 C 10.984375 16.769531 10.984375 16.835938 10.984375 16.90625 C 10.992188 17.386719 11.027344 17.820312 11.1875 18.277344 C 11.207031 18.335938 11.226562 18.394531 11.246094 18.453125 C 11.320312 18.644531 11.402344 18.828125 11.488281 19.011719 C 11.507812 19.046875 11.523438 19.085938 11.542969 19.125 C 11.898438 19.851562 12.390625 20.574219 13.070312 21.027344 C 13.070312 21.070312 13.070312 21.109375 13.070312 21.152344 C 13.101562 21.164062 13.136719 21.179688 13.167969 21.195312 C 13.351562 21.292969 13.511719 21.414062 13.679688 21.539062 C 13.742188 21.585938 13.804688 21.632812 13.867188 21.683594 C 14.019531 21.804688 14.148438 21.929688 14.285156 22.066406 C 14.394531 22.15625 14.5 22.246094 14.609375 22.332031 C 15.199219 22.816406 15.644531 23.332031 15.988281 24.023438 C 16.003906 24.238281 16.003906 24.453125 16.003906 24.667969 C 16.003906 24.726562 16.003906 24.789062 16.007812 24.847656 C 16.007812 25.242188 15.957031 25.554688 15.804688 25.917969 C 15.765625 26.015625 15.765625 26.015625 15.726562 26.113281 C 15.304688 27.011719 14.523438 27.589844 13.609375 27.929688 C 13.472656 27.976562 13.332031 28.019531 13.191406 28.058594 C 13.140625 28.074219 13.089844 28.089844 13.035156 28.105469 C 12.53125 28.25 12.046875 28.273438 11.527344 28.273438 C 11.484375 28.273438 11.441406 28.273438 11.398438 28.273438 C 10.675781 28.269531 10.007812 28.175781 9.3125 27.972656 C 9.128906 27.921875 8.941406 27.882812 8.753906 27.839844 C 8.488281 27.773438 8.308594 27.671875 8.085938 27.507812 C 7.980469 27.449219 7.875 27.390625 7.769531 27.335938 C 7.222656 27.039062 6.734375 26.722656 6.277344 26.292969 C 6.140625 26.160156 6.140625 26.160156 5.988281 26.042969 C 5.828125 25.910156 5.707031 25.773438 5.578125 25.609375 C 5.53125 25.550781 5.484375 25.492188 5.433594 25.429688 C 5.386719 25.371094 5.339844 25.308594 5.289062 25.246094 C 5.191406 25.128906 5.097656 25.015625 5 24.898438 C 4.539062 24.328125 4.25 23.710938 3.953125 23.046875 C 3.925781 22.988281 3.925781 22.988281 3.898438 22.929688 C 3.800781 22.707031 3.730469 22.488281 3.675781 22.246094 C 3.632812 22.0625 3.585938 21.882812 3.523438 21.699219 C 3.175781 20.617188 3.246094 19.335938 3.335938 18.214844 C 3.339844 18.148438 3.347656 18.078125 3.351562 18.003906 C 3.390625 17.542969 3.4375 17.085938 3.527344 16.628906 C 3.539062 16.558594 3.550781 16.488281 3.5625 16.417969 C 3.777344 15.265625 4.113281 14.175781 4.558594 13.09375 C 4.578125 13.046875 4.597656 12.996094 4.617188 12.949219 C 4.738281 12.660156 4.878906 12.386719 5.03125 12.113281 C 5.101562 11.992188 5.164062 11.871094 5.226562 11.75 C 5.433594 11.34375 5.652344 10.964844 5.917969 10.597656 C 6.058594 10.390625 6.171875 10.171875 6.289062 9.949219 C 6.449219 9.660156 6.628906 9.386719 6.808594 9.109375 C 7.640625 7.792969 8.003906 6.5625 8.144531 5.011719 C 8.257812 5.03125 8.257812 5.03125 8.390625 5.074219 C 8.964844 5.992188 8.84375 7.355469 8.632812 8.375 C 8.609375 8.492188 8.585938 8.609375 8.5625 8.730469 C 8.535156 8.859375 8.511719 8.992188 8.484375 9.125 C 8.472656 9.1875 8.460938 9.246094 8.445312 9.3125 C 8.378906 9.644531 8.296875 9.960938 8.179688 10.277344 C 8.136719 10.402344 8.136719 10.402344 8.144531 10.574219 C 8.1875 10.519531 8.226562 10.460938 8.269531 10.40625 C 8.554688 10.007812 8.84375 9.617188 9.144531 9.234375 C 10.460938 7.5625 11.839844 5.78125 12.625 3.789062 C 12.652344 3.726562 12.652344 3.726562 12.679688 3.65625 C 12.933594 2.992188 13.039062 2.367188 13.03125 1.65625 C 13.027344 1.527344 13.027344 1.398438 13.027344 1.269531 C 13.035156 0.800781 13.035156 0.800781 12.886719 0.367188 C 12.910156 0.167969 12.910156 0.167969 12.949219 0 Z M 12.949219 0 "/>
<path style=" stroke:none;fill-rule:nonzero;fill:rgb(99.215686%,99.215686%,99.215686%);fill-opacity:1;" d="M 24.804688 10.207031 C 25.160156 10.207031 25.519531 10.203125 25.878906 10.203125 C 26 10.199219 26.121094 10.199219 26.242188 10.199219 C 26.878906 10.195312 27.511719 10.199219 28.148438 10.261719 C 28.195312 10.269531 28.246094 10.273438 28.292969 10.277344 C 29.070312 10.363281 29.835938 10.621094 30.394531 11.1875 C 31.015625 12.003906 30.972656 12.964844 30.972656 13.941406 C 30.976562 14.070312 30.976562 14.199219 30.976562 14.328125 C 30.980469 14.664062 30.980469 15 30.984375 15.339844 C 30.984375 15.683594 30.988281 16.027344 30.992188 16.375 C 30.996094 17.050781 31 17.722656 31.003906 18.398438 C 31.039062 18.367188 31.078125 18.332031 31.117188 18.296875 C 31.164062 18.253906 31.214844 18.210938 31.265625 18.164062 C 31.3125 18.121094 31.359375 18.078125 31.410156 18.03125 C 32.355469 17.214844 33.628906 17.011719 34.839844 17.0625 C 36.347656 17.191406 37.601562 17.816406 38.664062 18.890625 C 38.691406 18.917969 38.722656 18.945312 38.75 18.976562 C 39.871094 20.109375 40.539062 21.585938 40.730469 23.167969 C 40.738281 23.222656 40.742188 23.277344 40.75 23.332031 C 40.980469 25.558594 40.570312 27.820312 39.152344 29.589844 C 38.148438 30.800781 36.886719 31.636719 35.320312 31.910156 C 34.445312 31.960938 33.53125 32.003906 32.707031 31.664062 C 32.648438 31.640625 32.648438 31.640625 32.589844 31.617188 C 31.902344 31.328125 31.179688 30.890625 30.761719 30.257812 C 30.722656 30.304688 30.683594 30.355469 30.644531 30.402344 C 30.035156 31.136719 29.335938 31.476562 28.390625 31.601562 C 28.019531 31.628906 27.644531 31.621094 27.273438 31.613281 C 27.175781 31.613281 27.074219 31.613281 26.976562 31.613281 C 26.738281 31.609375 26.5 31.605469 26.261719 31.601562 C 26.261719 31.5625 26.261719 31.523438 26.261719 31.484375 C 26.257812 29.132812 26.257812 26.78125 26.25 24.433594 C 26.25 24.152344 26.25 23.867188 26.25 23.585938 C 26.25 23.53125 26.25 23.472656 26.25 23.417969 C 26.246094 22.507812 26.246094 21.597656 26.246094 20.6875 C 26.246094 19.753906 26.242188 18.820312 26.242188 17.886719 C 26.238281 17.3125 26.238281 16.734375 26.238281 16.160156 C 26.238281 15.765625 26.238281 15.371094 26.234375 14.972656 C 26.234375 14.746094 26.234375 14.519531 26.234375 14.289062 C 26.234375 14.042969 26.234375 13.796875 26.234375 13.550781 C 26.234375 13.476562 26.234375 13.40625 26.234375 13.332031 C 26.230469 12.914062 26.183594 12.640625 25.957031 12.285156 C 25.734375 12.136719 25.535156 12.125 25.277344 12.097656 C 25.121094 12.078125 24.964844 12.058594 24.804688 12.042969 C 24.804688 11.4375 24.804688 10.832031 24.804688 10.207031 Z M 31.414062 20.601562 C 30.859375 21.292969 30.90625 22.089844 30.914062 22.933594 C 30.914062 23.058594 30.914062 23.183594 30.914062 23.308594 C 30.914062 23.570312 30.914062 23.828125 30.914062 24.089844 C 30.917969 24.421875 30.914062 24.753906 30.914062 25.089844 C 30.914062 25.347656 30.914062 25.605469 30.917969 25.863281 C 30.917969 25.984375 30.917969 26.105469 30.917969 26.230469 C 30.914062 26.402344 30.917969 26.574219 30.917969 26.746094 C 30.917969 26.792969 30.917969 26.84375 30.917969 26.894531 C 30.925781 27.542969 31.128906 28.046875 31.558594 28.523438 C 31.992188 28.9375 32.46875 29.015625 33.046875 29.007812 C 33.78125 28.972656 34.316406 28.625 34.808594 28.09375 C 35.792969 26.957031 36.015625 25.425781 35.925781 23.960938 C 35.824219 22.640625 35.410156 21.511719 34.453125 20.582031 C 33.582031 19.835938 32.242188 19.753906 31.414062 20.601562 Z M 31.414062 20.601562 "/>
<path style=" stroke:none;fill-rule:nonzero;fill:rgb(99.215686%,99.215686%,99.215686%);fill-opacity:1;" d="M 106.734375 18.207031 C 106.820312 18.292969 106.820312 18.292969 106.90625 18.378906 C 107.035156 18.503906 107.132812 18.578125 107.296875 18.644531 C 107.328125 18.59375 107.355469 18.539062 107.386719 18.488281 C 107.796875 17.878906 108.414062 17.601562 109.105469 17.4375 C 109.777344 17.308594 110.445312 17.296875 111.125 17.296875 C 111.214844 17.296875 111.214844 17.296875 111.304688 17.296875 C 111.449219 17.296875 111.589844 17.300781 111.734375 17.300781 C 111.734375 17.359375 111.734375 17.421875 111.734375 17.484375 C 111.738281 18.980469 111.742188 20.472656 111.746094 21.96875 C 111.75 22.6875 111.75 23.410156 111.75 24.132812 C 111.75 24.761719 111.753906 25.394531 111.757812 26.023438 C 111.757812 26.355469 111.757812 26.691406 111.757812 27.023438 C 111.757812 27.335938 111.757812 27.652344 111.761719 27.964844 C 111.761719 28.078125 111.761719 28.195312 111.761719 28.308594 C 111.761719 28.46875 111.761719 28.625 111.765625 28.78125 C 111.761719 28.828125 111.761719 28.871094 111.761719 28.917969 C 111.765625 29.230469 111.839844 29.410156 112.039062 29.648438 C 112.363281 29.832031 112.363281 29.832031 113.132812 29.832031 C 113.132812 30.414062 113.132812 31 113.132812 31.601562 C 112.695312 31.605469 112.257812 31.609375 111.824219 31.613281 C 111.621094 31.613281 111.414062 31.617188 111.210938 31.617188 C 110.976562 31.621094 110.742188 31.621094 110.507812 31.621094 C 110.4375 31.621094 110.367188 31.625 110.292969 31.625 C 109.621094 31.625 108.960938 31.53125 108.359375 31.214844 C 108.292969 31.179688 108.226562 31.144531 108.15625 31.109375 C 107.785156 30.882812 107.539062 30.621094 107.296875 30.257812 C 107.265625 30.292969 107.234375 30.324219 107.203125 30.359375 C 106.660156 30.933594 106.035156 31.390625 105.289062 31.664062 C 105.230469 31.6875 105.167969 31.710938 105.105469 31.738281 C 103.726562 32.195312 102.179688 31.960938 100.898438 31.335938 C 100.480469 31.121094 100.117188 30.871094 99.757812 30.5625 C 99.726562 30.539062 99.695312 30.511719 99.664062 30.484375 C 98.234375 29.25 97.433594 27.519531 97.222656 25.640625 C 97.085938 23.777344 97.265625 22 98.179688 20.355469 C 98.210938 20.296875 98.246094 20.234375 98.277344 20.171875 C 98.542969 19.722656 98.886719 19.351562 99.246094 18.980469 C 99.320312 18.898438 99.394531 18.820312 99.46875 18.738281 C 100.425781 17.707031 101.828125 17.132812 103.214844 17.058594 C 104.496094 17.042969 105.777344 17.292969 106.734375 18.207031 Z M 103.332031 20.765625 C 102.207031 21.960938 102.023438 23.488281 102.058594 25.066406 C 102.117188 26.328125 102.570312 27.472656 103.46875 28.363281 C 104.03125 28.878906 104.605469 29.03125 105.351562 28.996094 C 105.855469 28.960938 106.203125 28.726562 106.566406 28.386719 C 106.992188 27.882812 107.0625 27.296875 107.0625 26.664062 C 107.0625 26.613281 107.0625 26.558594 107.0625 26.503906 C 107.066406 26.332031 107.066406 26.15625 107.066406 25.984375 C 107.066406 25.863281 107.066406 25.742188 107.066406 25.621094 C 107.066406 25.367188 107.066406 25.113281 107.066406 24.859375 C 107.070312 24.53125 107.070312 24.207031 107.070312 23.882812 C 107.074219 23.632812 107.074219 23.382812 107.074219 23.132812 C 107.074219 23.011719 107.074219 22.890625 107.074219 22.773438 C 107.078125 21.945312 107.082031 21.195312 106.507812 20.539062 C 105.511719 19.703125 104.238281 19.898438 103.332031 20.765625 Z M 103.332031 20.765625 "/>
<path style=" stroke:none;fill-rule:nonzero;fill:rgb(99.215686%,99.215686%,99.215686%);fill-opacity:1;" d="M 127.417969 18.339844 C 127.457031 18.367188 127.5 18.398438 127.539062 18.425781 C 128.664062 19.300781 129.148438 20.820312 129.328125 22.179688 C 129.363281 22.472656 129.386719 22.765625 129.398438 23.058594 C 129.402344 23.113281 129.402344 23.164062 129.40625 23.21875 C 129.429688 23.773438 129.433594 24.324219 129.4375 24.878906 C 129.4375 25.0625 129.4375 25.246094 129.441406 25.425781 C 129.445312 25.945312 129.445312 26.464844 129.449219 26.984375 C 129.449219 27.300781 129.453125 27.621094 129.457031 27.941406 C 129.457031 28.0625 129.457031 28.183594 129.457031 28.304688 C 129.457031 28.472656 129.457031 28.640625 129.460938 28.808594 C 129.460938 28.859375 129.460938 28.910156 129.460938 28.960938 C 129.464844 29.242188 129.492188 29.425781 129.667969 29.648438 C 129.886719 29.792969 130.058594 29.792969 130.3125 29.804688 C 130.753906 29.824219 130.753906 29.824219 130.824219 29.890625 C 130.828125 30.019531 130.828125 30.144531 130.828125 30.273438 C 130.828125 30.386719 130.828125 30.386719 130.828125 30.503906 C 130.828125 30.585938 130.828125 30.667969 130.828125 30.75 C 130.828125 30.832031 130.828125 30.914062 130.824219 30.996094 C 130.824219 31.199219 130.824219 31.402344 130.824219 31.601562 C 130.332031 31.609375 129.839844 31.613281 129.347656 31.617188 C 129.121094 31.617188 128.890625 31.617188 128.664062 31.621094 C 128.441406 31.625 128.222656 31.625 128 31.625 C 127.917969 31.628906 127.832031 31.628906 127.75 31.628906 C 126.878906 31.644531 126.039062 31.507812 125.351562 30.929688 C 124.789062 30.378906 124.664062 29.730469 124.652344 28.972656 C 124.648438 28.703125 124.648438 28.433594 124.648438 28.164062 C 124.648438 28.019531 124.648438 27.875 124.644531 27.730469 C 124.644531 27.351562 124.640625 26.96875 124.640625 26.589844 C 124.640625 25.984375 124.636719 25.375 124.632812 24.769531 C 124.632812 24.558594 124.632812 24.347656 124.632812 24.136719 C 124.675781 22.210938 124.675781 22.210938 123.816406 20.550781 C 123.433594 20.191406 122.960938 19.972656 122.433594 19.988281 C 121.835938 20.042969 121.277344 20.296875 120.851562 20.722656 C 120.453125 21.230469 120.179688 21.824219 120.175781 22.480469 C 120.175781 22.535156 120.175781 22.59375 120.175781 22.652344 C 120.175781 22.710938 120.175781 22.773438 120.175781 22.835938 C 120.171875 22.933594 120.171875 22.933594 120.171875 23.035156 C 120.171875 23.175781 120.171875 23.316406 120.171875 23.460938 C 120.167969 23.683594 120.167969 23.910156 120.167969 24.136719 C 120.164062 24.773438 120.160156 25.414062 120.15625 26.054688 C 120.152344 26.445312 120.152344 26.835938 120.148438 27.230469 C 120.148438 27.378906 120.148438 27.527344 120.144531 27.675781 C 120.136719 30.292969 120.136719 30.292969 119.414062 31.054688 C 118.847656 31.539062 118.09375 31.625 117.378906 31.617188 C 117.324219 31.613281 117.265625 31.613281 117.210938 31.613281 C 117.03125 31.613281 116.855469 31.613281 116.679688 31.609375 C 116.5625 31.609375 116.441406 31.609375 116.320312 31.609375 C 116.027344 31.609375 115.734375 31.605469 115.441406 31.601562 C 115.441406 31.542969 115.441406 31.484375 115.441406 31.421875 C 115.4375 29.976562 115.433594 28.53125 115.425781 27.082031 C 115.421875 26.382812 115.417969 25.683594 115.417969 24.984375 C 115.414062 24.375 115.414062 23.765625 115.410156 23.152344 C 115.410156 22.832031 115.40625 22.507812 115.40625 22.183594 C 115.40625 21.882812 115.402344 21.578125 115.402344 21.273438 C 115.402344 21.160156 115.402344 21.050781 115.402344 20.9375 C 115.402344 20.785156 115.398438 20.632812 115.398438 20.480469 C 115.398438 20.4375 115.398438 20.394531 115.398438 20.347656 C 115.394531 20.011719 115.359375 19.695312 115.152344 19.417969 C 114.792969 19.148438 114.445312 19.175781 113.984375 19.132812 C 113.984375 18.527344 113.984375 17.921875 113.984375 17.300781 C 114.332031 17.296875 114.683594 17.292969 115.035156 17.292969 C 115.152344 17.292969 115.269531 17.292969 115.390625 17.289062 C 116.015625 17.285156 116.636719 17.292969 117.261719 17.351562 C 117.332031 17.359375 117.332031 17.359375 117.40625 17.367188 C 118.335938 17.46875 119.058594 17.820312 119.671875 18.523438 C 119.757812 18.644531 119.757812 18.644531 119.757812 18.765625 C 119.785156 18.742188 119.816406 18.714844 119.84375 18.691406 C 119.976562 18.570312 120.109375 18.457031 120.246094 18.339844 C 120.289062 18.300781 120.332031 18.257812 120.378906 18.21875 C 122.386719 16.488281 125.414062 16.796875 127.417969 18.339844 Z M 127.417969 18.339844 "/>
<path style=" stroke:none;fill-rule:nonzero;fill:rgb(99.215686%,99.215686%,99.215686%);fill-opacity:1;" d="M 56.109375 19.316406 C 56.152344 19.355469 56.195312 19.394531 56.238281 19.433594 C 57.492188 20.617188 58.074219 22.414062 58.132812 24.105469 C 58.175781 26.164062 57.644531 28.074219 56.214844 29.601562 C 54.851562 31.019531 52.917969 31.898438 50.945312 31.933594 C 50.808594 31.933594 50.671875 31.933594 50.535156 31.933594 C 50.394531 31.933594 50.257812 31.933594 50.121094 31.933594 C 49.265625 31.933594 48.441406 31.816406 47.628906 31.535156 C 47.578125 31.515625 47.523438 31.5 47.46875 31.480469 C 46.640625 31.183594 45.902344 30.761719 45.230469 30.199219 C 45.167969 30.148438 45.109375 30.097656 45.046875 30.042969 C 43.640625 28.824219 42.824219 27.101562 42.675781 25.246094 C 42.566406 22.953125 43.121094 21.023438 44.632812 19.285156 C 45.980469 17.847656 47.996094 17.070312 49.941406 16.992188 C 52.320312 16.984375 54.363281 17.660156 56.109375 19.316406 Z M 48.71875 20.632812 C 47.632812 21.761719 47.511719 23.375 47.527344 24.867188 C 47.558594 26.132812 47.855469 27.453125 48.75 28.390625 C 49.316406 28.929688 49.808594 29.128906 50.59375 29.117188 C 51.21875 29.0625 51.707031 28.730469 52.117188 28.265625 C 53.21875 26.855469 53.410156 25.132812 53.222656 23.386719 C 53.078125 22.292969 52.742188 21.136719 51.855469 20.417969 C 50.78125 19.667969 49.671875 19.726562 48.71875 20.632812 Z M 48.71875 20.632812 "/>
<path style=" stroke:none;fill-rule:nonzero;fill:rgb(99.215686%,99.215686%,99.215686%);fill-opacity:1;" d="M 80.546875 11.613281 C 80.964844 11.613281 81.386719 11.609375 81.804688 11.609375 C 81.945312 11.605469 82.085938 11.605469 82.226562 11.605469 C 85.480469 11.582031 85.480469 11.582031 86.460938 12.472656 C 86.863281 12.894531 87.121094 13.429688 87.121094 14.019531 C 87.121094 14.070312 87.121094 14.125 87.121094 14.179688 C 87.121094 14.238281 87.121094 14.292969 87.121094 14.355469 C 87.121094 14.414062 87.121094 14.476562 87.121094 14.539062 C 87.121094 14.746094 87.121094 14.953125 87.121094 15.160156 C 87.121094 15.308594 87.121094 15.457031 87.121094 15.605469 C 87.121094 15.925781 87.121094 16.246094 87.121094 16.566406 C 87.121094 17.027344 87.121094 17.488281 87.121094 17.949219 C 87.121094 18.699219 87.121094 19.449219 87.117188 20.195312 C 87.117188 20.925781 87.117188 21.652344 87.117188 22.378906 C 87.117188 22.425781 87.117188 22.46875 87.117188 22.515625 C 87.117188 22.742188 87.117188 22.964844 87.117188 23.191406 C 87.117188 25.058594 87.117188 26.925781 87.113281 28.792969 C 87.957031 28.789062 88.800781 28.789062 89.644531 28.785156 C 90.035156 28.78125 90.425781 28.78125 90.816406 28.78125 C 91.195312 28.78125 91.570312 28.777344 91.949219 28.773438 C 92.09375 28.773438 92.238281 28.773438 92.382812 28.773438 C 92.582031 28.773438 92.785156 28.773438 92.988281 28.769531 C 93.046875 28.769531 93.105469 28.773438 93.167969 28.773438 C 93.453125 28.765625 93.578125 28.761719 93.804688 28.582031 C 93.988281 28.332031 94 28.136719 94.019531 27.835938 C 94.03125 27.613281 94.03125 27.613281 94.042969 27.386719 C 94.625 27.386719 95.207031 27.386719 95.808594 27.386719 C 95.863281 30.023438 95.863281 30.023438 94.957031 31.003906 C 94.476562 31.441406 93.945312 31.625 93.300781 31.617188 C 93.230469 31.617188 93.230469 31.617188 93.15625 31.617188 C 92.992188 31.617188 92.832031 31.617188 92.671875 31.617188 C 92.554688 31.617188 92.4375 31.617188 92.320312 31.617188 C 92.007812 31.617188 91.691406 31.617188 91.375 31.617188 C 91.046875 31.613281 90.71875 31.613281 90.386719 31.613281 C 89.765625 31.613281 89.140625 31.613281 88.519531 31.613281 C 87.808594 31.609375 87.097656 31.609375 86.386719 31.609375 C 84.929688 31.609375 83.46875 31.605469 82.007812 31.601562 C 82.007812 31.566406 82.007812 31.527344 82.007812 31.492188 C 82.003906 29.289062 81.996094 27.089844 81.992188 24.890625 C 81.988281 24.625 81.988281 24.363281 81.988281 24.097656 C 81.988281 24.019531 81.988281 24.019531 81.988281 23.9375 C 81.984375 23.085938 81.984375 22.234375 81.980469 21.382812 C 81.980469 20.511719 81.976562 19.636719 81.972656 18.761719 C 81.972656 18.222656 81.972656 17.683594 81.96875 17.144531 C 81.96875 16.777344 81.96875 16.40625 81.96875 16.035156 C 81.964844 15.824219 81.964844 15.609375 81.964844 15.398438 C 81.964844 15.164062 81.964844 14.933594 81.964844 14.703125 C 81.964844 14.636719 81.964844 14.566406 81.964844 14.5 C 81.964844 14.4375 81.964844 14.375 81.960938 14.3125 C 81.960938 14.257812 81.960938 14.203125 81.960938 14.148438 C 81.945312 13.976562 81.898438 13.847656 81.824219 13.691406 C 81.460938 13.460938 80.949219 13.480469 80.546875 13.449219 C 80.546875 12.84375 80.546875 12.238281 80.546875 11.613281 Z M 80.546875 11.613281 "/>
<path style=" stroke:none;fill-rule:nonzero;fill:rgb(99.215686%,99.215686%,99.215686%);fill-opacity:1;" d="M 157.691406 11.613281 C 158.050781 11.613281 158.410156 11.609375 158.769531 11.609375 C 158.890625 11.605469 159.011719 11.605469 159.132812 11.605469 C 159.769531 11.601562 160.402344 11.605469 161.035156 11.667969 C 161.085938 11.675781 161.132812 11.679688 161.183594 11.683594 C 162.050781 11.78125 162.851562 12.078125 163.40625 12.777344 C 163.808594 13.402344 163.851562 14.054688 163.84375 14.78125 C 163.84375 14.851562 163.84375 14.925781 163.84375 15 C 163.84375 15.230469 163.84375 15.457031 163.839844 15.6875 C 163.839844 15.84375 163.839844 16 163.839844 16.15625 C 163.835938 16.535156 163.835938 16.917969 163.832031 17.300781 C 164.835938 17.300781 165.839844 17.300781 166.871094 17.300781 C 166.871094 18.226562 166.871094 19.15625 166.871094 20.109375 C 165.871094 20.109375 164.867188 20.109375 163.832031 20.109375 C 163.839844 21.164062 163.839844 21.164062 163.847656 22.214844 C 163.851562 22.644531 163.855469 23.074219 163.859375 23.503906 C 163.859375 23.851562 163.863281 24.199219 163.867188 24.542969 C 163.867188 24.675781 163.867188 24.808594 163.871094 24.9375 C 163.835938 26.878906 163.835938 26.878906 164.683594 28.546875 C 164.921875 28.765625 165.175781 28.761719 165.488281 28.75 C 165.8125 28.710938 166.039062 28.613281 166.246094 28.359375 C 166.339844 28.21875 166.425781 28.082031 166.507812 27.9375 C 166.5625 27.84375 166.5625 27.84375 166.621094 27.75 C 166.644531 27.710938 166.667969 27.671875 166.691406 27.628906 C 166.902344 27.671875 167.066406 27.757812 167.253906 27.863281 C 167.3125 27.898438 167.375 27.929688 167.4375 27.96875 C 167.5 28.003906 167.5625 28.039062 167.628906 28.078125 C 167.691406 28.113281 167.753906 28.148438 167.820312 28.183594 C 168.644531 28.65625 168.644531 28.65625 168.757812 28.976562 C 168.832031 29.394531 168.738281 29.699219 168.507812 30.046875 C 167.761719 31.019531 166.609375 31.699219 165.402344 31.890625 C 163.949219 32.054688 162.484375 31.945312 161.28125 31.039062 C 161.132812 30.910156 160.992188 30.769531 160.855469 30.625 C 160.8125 30.585938 160.769531 30.546875 160.726562 30.503906 C 159.960938 29.722656 159.613281 28.601562 159.382812 27.554688 C 159.375 27.511719 159.363281 27.46875 159.355469 27.425781 C 159.152344 26.441406 159.132812 25.441406 159.140625 24.4375 C 159.140625 24.3125 159.140625 24.1875 159.140625 24.0625 C 159.140625 23.734375 159.140625 23.40625 159.144531 23.082031 C 159.144531 22.746094 159.144531 22.410156 159.144531 22.074219 C 159.148438 21.421875 159.148438 20.765625 159.152344 20.109375 C 158.550781 20.109375 157.949219 20.109375 157.328125 20.109375 C 157.328125 19.183594 157.328125 18.253906 157.328125 17.300781 C 157.929688 17.300781 158.53125 17.300781 159.152344 17.300781 C 159.148438 16.855469 159.144531 16.410156 159.140625 15.964844 C 159.136719 15.8125 159.136719 15.664062 159.136719 15.511719 C 159.132812 15.292969 159.132812 15.074219 159.128906 14.859375 C 159.128906 14.789062 159.128906 14.722656 159.128906 14.652344 C 159.121094 14.261719 159.085938 14.011719 158.847656 13.691406 C 158.625 13.542969 158.425781 13.53125 158.167969 13.5 C 158.011719 13.484375 157.855469 13.464844 157.691406 13.449219 C 157.691406 12.84375 157.691406 12.238281 157.691406 11.613281 Z M 157.691406 11.613281 "/>
<path style=" stroke:none;fill-rule:nonzero;fill:rgb(99.215686%,99.215686%,99.215686%);fill-opacity:1;" d="M 17.933594 9.902344 C 18.179688 9.988281 18.351562 10.105469 18.554688 10.273438 C 18.609375 10.324219 18.667969 10.371094 18.730469 10.421875 C 18.945312 10.609375 19.160156 10.800781 19.371094 10.996094 C 19.5 11.109375 19.628906 11.222656 19.757812 11.332031 C 20.066406 11.605469 20.335938 11.914062 20.609375 12.226562 C 20.644531 12.265625 20.683594 12.304688 20.722656 12.347656 C 21.0625 12.71875 21.320312 13.144531 21.582031 13.570312 C 21.605469 13.609375 21.628906 13.648438 21.652344 13.6875 C 22.308594 14.746094 22.792969 15.875 23.007812 17.109375 C 23.03125 17.257812 23.0625 17.394531 23.105469 17.539062 C 23.292969 18.28125 23.304688 19.0625 23.300781 19.824219 C 23.300781 19.871094 23.300781 19.917969 23.300781 19.964844 C 23.296875 20.679688 23.273438 21.371094 23.101562 22.066406 C 23.085938 22.125 23.074219 22.179688 23.058594 22.234375 C 22.738281 23.503906 22.25 24.671875 21.582031 25.796875 C 21.550781 25.847656 21.519531 25.902344 21.484375 25.957031 C 21.21875 26.398438 20.914062 26.789062 20.566406 27.167969 C 20.421875 27.332031 20.285156 27.5 20.148438 27.671875 C 19.953125 27.917969 19.75 28.128906 19.503906 28.324219 C 19.386719 28.425781 19.386719 28.425781 19.28125 28.570312 C 19.128906 28.757812 18.953125 28.894531 18.761719 29.039062 C 18.726562 29.066406 18.695312 29.089844 18.660156 29.117188 C 18.445312 29.28125 18.222656 29.4375 17.996094 29.585938 C 17.941406 29.621094 17.886719 29.65625 17.832031 29.695312 C 17.488281 29.917969 17.15625 30.101562 16.777344 30.257812 C 16.722656 30.285156 16.667969 30.3125 16.609375 30.335938 C 15.898438 30.664062 15.152344 30.886719 14.40625 31.113281 C 14.332031 31.136719 14.257812 31.160156 14.179688 31.183594 C 13.296875 31.421875 12.335938 31.363281 11.425781 31.371094 C 11.308594 31.371094 11.1875 31.371094 11.066406 31.371094 C 10.566406 31.375 10.09375 31.328125 9.605469 31.238281 C 9.558594 31.230469 9.515625 31.222656 9.46875 31.214844 C 8.855469 31.109375 8.257812 30.964844 7.660156 30.808594 C 7.660156 30.769531 7.660156 30.726562 7.660156 30.6875 C 7.605469 30.679688 7.554688 30.671875 7.5 30.664062 C 6.664062 30.5 5.757812 29.878906 5.085938 29.375 C 4.933594 29.261719 4.777344 29.171875 4.605469 29.082031 C 4.3125 28.921875 4.082031 28.722656 3.84375 28.488281 C 3.78125 28.429688 3.78125 28.429688 3.71875 28.367188 C 3.132812 27.796875 2.578125 27.21875 2.128906 26.53125 C 2.035156 26.398438 1.945312 26.269531 1.855469 26.140625 C 1.429688 25.539062 1.09375 24.90625 0.8125 24.226562 C 0.785156 24.15625 0.753906 24.085938 0.726562 24.015625 C 0.503906 23.476562 0.3125 22.941406 0.183594 22.371094 C 0.167969 22.316406 0.152344 22.257812 0.136719 22.199219 C -0.0429688 21.460938 -0.0351562 20.714844 -0.0351562 19.960938 C -0.0351562 19.726562 -0.0390625 19.496094 -0.0390625 19.265625 C -0.0507812 17.71875 0.226562 16.136719 1.027344 14.792969 C 1.101562 14.660156 1.148438 14.53125 1.199219 14.386719 C 1.714844 13.050781 2.777344 11.949219 3.808594 10.992188 C 3.859375 10.941406 3.859375 10.941406 3.914062 10.894531 C 4.320312 10.515625 4.320312 10.515625 4.558594 10.515625 C 4.515625 10.753906 4.402344 10.960938 4.292969 11.175781 C 4.078125 11.601562 3.867188 12.03125 3.664062 12.460938 C 3.621094 12.550781 3.621094 12.550781 3.578125 12.636719 C 3.328125 13.164062 3.117188 13.699219 2.917969 14.242188 C 2.902344 14.285156 2.886719 14.324219 2.871094 14.367188 C 2.675781 14.910156 2.496094 15.449219 2.371094 16.015625 C 2.355469 16.082031 2.339844 16.148438 2.324219 16.214844 C 2.296875 16.355469 2.265625 16.496094 2.238281 16.636719 C 2.207031 16.785156 2.171875 16.9375 2.140625 17.089844 C 2.019531 17.675781 1.980469 18.238281 1.984375 18.835938 C 1.988281 18.980469 1.988281 19.128906 1.988281 19.273438 C 1.988281 19.367188 1.988281 19.460938 1.988281 19.554688 C 1.988281 19.597656 1.988281 19.640625 1.988281 19.683594 C 1.992188 19.988281 2.050781 20.246094 2.128906 20.539062 C 2.148438 20.726562 2.15625 20.914062 2.167969 21.105469 C 2.1875 21.273438 2.234375 21.371094 2.308594 21.515625 C 2.316406 21.589844 2.324219 21.664062 2.332031 21.738281 C 2.359375 22 2.449219 22.21875 2.550781 22.457031 C 2.671875 22.761719 2.796875 23.082031 2.796875 23.414062 C 2.835938 23.414062 2.875 23.414062 2.917969 23.414062 C 2.980469 23.570312 3.042969 23.726562 3.101562 23.886719 C 3.148438 24.03125 3.148438 24.03125 3.28125 24.085938 C 3.308594 24.167969 3.308594 24.167969 3.335938 24.253906 C 3.410156 24.472656 3.503906 24.59375 3.65625 24.769531 C 3.839844 24.988281 4.015625 25.210938 4.179688 25.449219 C 4.75 26.246094 5.453125 26.90625 6.253906 27.464844 C 6.316406 27.515625 6.316406 27.515625 6.382812 27.570312 C 6.382812 27.609375 6.382812 27.648438 6.382812 27.691406 C 6.445312 27.699219 6.445312 27.699219 6.503906 27.707031 C 6.742188 27.765625 6.945312 27.871094 7.160156 27.984375 C 7.203125 28.007812 7.242188 28.027344 7.285156 28.050781 C 7.367188 28.089844 7.453125 28.132812 7.535156 28.175781 C 7.738281 28.28125 7.941406 28.382812 8.144531 28.484375 C 8.1875 28.507812 8.226562 28.527344 8.269531 28.550781 C 8.445312 28.636719 8.628906 28.679688 8.816406 28.730469 C 8.90625 28.757812 8.996094 28.78125 9.089844 28.808594 C 9.234375 28.847656 9.378906 28.886719 9.523438 28.929688 C 9.570312 28.941406 9.617188 28.953125 9.667969 28.96875 C 9.707031 28.980469 9.75 28.992188 9.792969 29.003906 C 9.894531 29.03125 9.992188 29.0625 10.089844 29.097656 C 12.375 29.453125 14.871094 29.125 16.773438 27.726562 C 16.8125 27.699219 16.851562 27.671875 16.886719 27.640625 C 17.082031 27.507812 17.082031 27.507812 17.265625 27.507812 C 17.285156 27.449219 17.304688 27.386719 17.324219 27.324219 C 17.417969 27.238281 17.417969 27.238281 17.535156 27.140625 C 17.816406 26.902344 18.050781 26.632812 18.292969 26.355469 C 18.335938 26.3125 18.375 26.269531 18.417969 26.222656 C 18.460938 26.222656 18.5 26.222656 18.542969 26.222656 C 18.554688 26.191406 18.570312 26.160156 18.585938 26.125 C 18.683594 25.941406 18.800781 25.777344 18.921875 25.605469 C 19.132812 25.304688 19.324219 25 19.503906 24.679688 C 19.527344 24.644531 19.550781 24.609375 19.574219 24.574219 C 19.613281 24.574219 19.65625 24.574219 19.695312 24.574219 C 19.695312 24.472656 19.695312 24.371094 19.695312 24.269531 C 19.738281 24.269531 19.777344 24.269531 19.816406 24.269531 C 19.835938 24.203125 19.835938 24.203125 19.855469 24.140625 C 19.878906 24.058594 19.878906 24.058594 19.902344 23.972656 C 19.917969 23.917969 19.933594 23.863281 19.949219 23.808594 C 20 23.65625 20 23.65625 20.121094 23.472656 C 20.164062 23.351562 20.203125 23.230469 20.242188 23.105469 C 20.273438 23.023438 20.300781 22.9375 20.328125 22.851562 C 20.667969 21.828125 20.808594 20.902344 20.808594 19.824219 C 20.808594 19.777344 20.808594 19.730469 20.808594 19.683594 C 20.8125 19.550781 20.808594 19.414062 20.808594 19.28125 C 20.808594 19.203125 20.808594 19.125 20.808594 19.042969 C 20.789062 18.828125 20.742188 18.660156 20.667969 18.460938 C 20.660156 18.367188 20.65625 18.269531 20.652344 18.175781 C 20.5625 17.011719 19.941406 15.917969 19.390625 14.914062 C 19.371094 14.878906 19.351562 14.839844 19.332031 14.804688 C 19.210938 14.585938 19.078125 14.386719 18.921875 14.191406 C 18.722656 13.949219 18.722656 13.949219 18.722656 13.816406 C 18.664062 13.792969 18.601562 13.773438 18.542969 13.753906 C 18.542969 13.714844 18.542969 13.671875 18.542969 13.632812 C 18.5 13.632812 18.460938 13.632812 18.417969 13.632812 C 18.417969 13.570312 18.417969 13.511719 18.417969 13.449219 C 18.382812 13.429688 18.347656 13.414062 18.3125 13.398438 C 18.09375 13.28125 17.917969 13.121094 17.730469 12.957031 C 17.671875 12.90625 17.671875 12.90625 17.609375 12.855469 C 17.332031 12.609375 17.332031 12.609375 17.3125 12.390625 C 17.339844 12.082031 17.4375 11.828125 17.570312 11.554688 C 17.765625 11.109375 17.824219 10.648438 17.859375 10.164062 C 17.871094 10.023438 17.871094 10.023438 17.933594 9.902344 Z M 17.933594 9.902344 "/>
<path style=" stroke:none;fill-rule:nonzero;fill:rgb(99.215686%,99.215686%,99.215686%);fill-opacity:1;" d="M 71.945312 17.851562 C 72.207031 18.109375 72.417969 18.328125 72.425781 18.714844 C 72.40625 19.335938 72.050781 19.804688 71.699219 20.292969 C 71.523438 20.542969 71.347656 20.796875 71.171875 21.050781 C 70.933594 21.390625 70.699219 21.730469 70.457031 22.066406 C 70.230469 21.976562 70.117188 21.84375 69.964844 21.65625 C 69.46875 21.085938 68.820312 20.777344 68.070312 20.722656 C 67.507812 20.722656 67.03125 20.828125 66.566406 21.152344 C 66.511719 21.1875 66.457031 21.222656 66.398438 21.261719 C 65.84375 21.804688 65.660156 22.644531 65.644531 23.402344 C 65.644531 23.519531 65.644531 23.636719 65.644531 23.75 C 65.644531 23.8125 65.644531 23.878906 65.644531 23.941406 C 65.644531 24.078125 65.644531 24.21875 65.640625 24.355469 C 65.640625 24.570312 65.640625 24.789062 65.640625 25.007812 C 65.636719 25.625 65.632812 26.242188 65.628906 26.859375 C 65.628906 27.238281 65.625 27.617188 65.625 27.996094 C 65.625 28.140625 65.621094 28.285156 65.621094 28.429688 C 65.621094 28.628906 65.621094 28.832031 65.621094 29.03125 C 65.621094 29.121094 65.621094 29.121094 65.621094 29.210938 C 65.613281 29.867188 65.464844 30.484375 65.011719 30.972656 C 64.425781 31.519531 63.667969 31.625 62.894531 31.617188 C 62.839844 31.613281 62.78125 31.613281 62.722656 31.613281 C 62.542969 31.613281 62.363281 31.613281 62.183594 31.609375 C 62.058594 31.609375 61.9375 31.609375 61.8125 31.609375 C 61.511719 31.609375 61.210938 31.605469 60.914062 31.601562 C 60.914062 31.542969 60.914062 31.480469 60.914062 31.417969 C 60.910156 29.941406 60.90625 28.460938 60.902344 26.984375 C 60.898438 26.269531 60.898438 25.554688 60.894531 24.839844 C 60.894531 24.214844 60.894531 23.59375 60.890625 22.96875 C 60.890625 22.640625 60.890625 22.308594 60.890625 21.980469 C 60.890625 21.667969 60.886719 21.359375 60.886719 21.046875 C 60.886719 20.933594 60.886719 20.820312 60.886719 20.707031 C 60.886719 20.550781 60.886719 20.394531 60.882812 20.238281 C 60.882812 20.195312 60.882812 20.148438 60.886719 20.101562 C 60.878906 19.792969 60.804688 19.617188 60.609375 19.378906 C 60.21875 19.140625 59.945312 19.175781 59.453125 19.132812 C 59.453125 18.527344 59.453125 17.921875 59.453125 17.300781 C 59.804688 17.296875 60.152344 17.292969 60.5 17.292969 C 60.617188 17.292969 60.738281 17.292969 60.855469 17.289062 C 61.496094 17.285156 62.128906 17.292969 62.765625 17.355469 C 62.84375 17.363281 62.84375 17.363281 62.921875 17.367188 C 63.847656 17.464844 64.613281 17.804688 65.230469 18.523438 C 65.410156 18.78125 65.410156 18.78125 65.410156 19.011719 C 65.453125 19.011719 65.492188 19.011719 65.53125 19.011719 C 65.550781 18.976562 65.566406 18.941406 65.582031 18.90625 C 65.988281 18.136719 66.863281 17.625 67.660156 17.359375 C 68.980469 16.972656 70.824219 16.921875 71.945312 17.851562 Z M 71.945312 17.851562 "/>
<path style=" stroke:none;fill-rule:nonzero;fill:rgb(99.215686%,99.215686%,99.215686%);fill-opacity:1;" d="M 148.9375 17.300781 C 149.296875 17.296875 149.660156 17.292969 150.019531 17.292969 C 150.140625 17.292969 150.261719 17.292969 150.382812 17.289062 C 151.007812 17.285156 151.628906 17.289062 152.25 17.351562 C 152.316406 17.359375 152.316406 17.359375 152.386719 17.367188 C 153.1875 17.460938 154.003906 17.757812 154.558594 18.367188 C 155.058594 19.015625 155.097656 19.703125 155.09375 20.496094 C 155.09375 20.59375 155.097656 20.6875 155.097656 20.78125 C 155.097656 20.984375 155.097656 21.1875 155.097656 21.390625 C 155.097656 21.710938 155.097656 22.03125 155.101562 22.355469 C 155.101562 23.152344 155.105469 23.949219 155.105469 24.746094 C 155.105469 25.367188 155.109375 25.984375 155.109375 26.605469 C 155.113281 26.925781 155.113281 27.246094 155.113281 27.5625 C 155.113281 27.761719 155.113281 27.960938 155.113281 28.160156 C 155.113281 28.25 155.113281 28.34375 155.113281 28.433594 C 155.113281 28.5625 155.113281 28.6875 155.117188 28.8125 C 155.117188 28.882812 155.117188 28.953125 155.117188 29.023438 C 155.148438 29.308594 155.238281 29.515625 155.457031 29.699219 C 155.671875 29.789062 155.871094 29.804688 156.101562 29.8125 C 156.246094 29.816406 156.390625 29.824219 156.539062 29.832031 C 156.539062 30.414062 156.539062 31 156.539062 31.601562 C 156.085938 31.609375 155.636719 31.613281 155.1875 31.617188 C 154.976562 31.617188 154.765625 31.617188 154.558594 31.621094 C 151.964844 31.65625 151.964844 31.65625 151.042969 30.796875 C 150.425781 30.105469 150.371094 29.269531 150.375 28.382812 C 150.375 28.289062 150.375 28.195312 150.375 28.101562 C 150.375 27.898438 150.375 27.699219 150.375 27.496094 C 150.375 27.179688 150.375 26.863281 150.375 26.542969 C 150.371094 25.753906 150.371094 24.964844 150.371094 24.175781 C 150.371094 23.5625 150.371094 22.945312 150.367188 22.332031 C 150.367188 22.015625 150.367188 21.699219 150.367188 21.382812 C 150.371094 21.1875 150.367188 20.988281 150.367188 20.792969 C 150.367188 20.703125 150.367188 20.613281 150.367188 20.519531 C 150.367188 20.398438 150.367188 20.273438 150.367188 20.148438 C 150.367188 20.078125 150.367188 20.007812 150.367188 19.9375 C 150.328125 19.699219 150.242188 19.566406 150.09375 19.378906 C 149.871094 19.230469 149.671875 19.214844 149.414062 19.1875 C 149.257812 19.167969 149.101562 19.152344 148.9375 19.132812 C 148.9375 18.527344 148.9375 17.921875 148.9375 17.300781 Z M 148.9375 17.300781 "/>
<path style=" stroke:none;fill-rule:nonzero;fill:rgb(88.235295%,13.333334%,16.470589%);fill-opacity:1;" d="M 16.050781 6.96875 C 16.164062 6.988281 16.164062 6.988281 16.292969 7.03125 C 16.996094 8.195312 17.125 9.65625 16.851562 10.972656 C 16.65625 11.753906 16.386719 12.527344 16.066406 13.265625 C 15.785156 13.921875 15.523438 14.582031 15.378906 15.28125 C 15.367188 15.328125 15.359375 15.371094 15.347656 15.417969 C 15.238281 16.101562 15.246094 16.894531 15.5 17.542969 C 15.523438 17.605469 15.542969 17.664062 15.566406 17.726562 C 15.710938 18.105469 15.890625 18.425781 16.136719 18.75 C 16.230469 18.890625 16.230469 18.890625 16.292969 19.054688 C 16.3125 19.101562 16.332031 19.148438 16.351562 19.195312 C 16.414062 19.214844 16.472656 19.234375 16.535156 19.253906 C 16.636719 19.359375 16.636719 19.359375 16.746094 19.488281 C 16.890625 19.664062 17.039062 19.832031 17.203125 19.988281 C 17.640625 19.890625 17.925781 19.625 18.175781 19.265625 C 18.488281 18.746094 18.625 18.308594 18.617188 17.703125 C 18.617188 17.660156 18.617188 17.613281 18.617188 17.566406 C 18.609375 17.222656 18.574219 16.898438 18.480469 16.566406 C 18.46875 16.523438 18.457031 16.480469 18.445312 16.4375 C 18.308594 15.972656 18.082031 15.535156 17.871094 15.097656 C 17.847656 15.046875 17.824219 14.996094 17.796875 14.941406 C 17.714844 14.769531 17.628906 14.605469 17.523438 14.445312 C 17.4375 14.285156 17.433594 14.179688 17.445312 14 C 17.507812 14 17.566406 14 17.628906 14 C 17.726562 14.109375 17.726562 14.109375 17.839844 14.269531 C 17.882812 14.332031 17.921875 14.390625 17.96875 14.457031 C 18.003906 14.507812 18.003906 14.507812 18.039062 14.558594 C 18.121094 14.679688 18.207031 14.796875 18.292969 14.917969 C 18.679688 15.445312 19.007812 15.964844 19.269531 16.566406 C 19.292969 16.617188 19.316406 16.667969 19.339844 16.71875 C 19.46875 17.027344 19.570312 17.347656 19.671875 17.667969 C 19.6875 17.707031 19.699219 17.746094 19.710938 17.785156 C 19.914062 18.445312 19.964844 19.078125 19.964844 19.761719 C 19.964844 19.808594 19.964844 19.855469 19.964844 19.902344 C 19.960938 21.375 19.546875 22.757812 18.785156 24.023438 C 18.746094 24.023438 18.703125 24.023438 18.664062 24.023438 C 18.648438 24.078125 18.632812 24.128906 18.617188 24.1875 C 18.539062 24.398438 18.441406 24.546875 18.304688 24.726562 C 18.175781 24.898438 18.050781 25.066406 17.9375 25.25 C 17.773438 25.484375 17.582031 25.691406 17.386719 25.902344 C 17.257812 26.042969 17.257812 26.042969 17.144531 26.222656 C 17.082031 26.222656 17.023438 26.222656 16.960938 26.222656 C 16.949219 25.949219 16.960938 25.707031 17.023438 25.4375 C 17.222656 24.464844 16.890625 23.578125 16.414062 22.738281 C 16.316406 22.59375 16.214844 22.453125 16.109375 22.3125 C 16.109375 22.273438 16.109375 22.230469 16.109375 22.191406 C 16.074219 22.175781 16.039062 22.15625 16 22.140625 C 15.855469 22.0625 15.765625 21.976562 15.652344 21.855469 C 15.609375 21.8125 15.570312 21.769531 15.527344 21.722656 C 15.484375 21.679688 15.441406 21.632812 15.394531 21.585938 C 15.058594 21.238281 14.722656 20.925781 14.332031 20.640625 C 13.210938 19.828125 12.125 18.730469 11.875 17.308594 C 11.714844 15.628906 12.507812 14.195312 13.347656 12.800781 C 13.480469 12.574219 13.609375 12.34375 13.734375 12.109375 C 13.90625 11.800781 14.078125 11.492188 14.257812 11.191406 C 14.496094 10.789062 14.6875 10.367188 14.882812 9.945312 C 14.996094 9.695312 15.117188 9.453125 15.242188 9.207031 C 15.601562 8.488281 15.832031 7.742188 16.050781 6.96875 Z M 16.050781 6.96875 "/>
<path style=" stroke:none;fill-rule:nonzero;fill:rgb(99.215686%,99.215686%,99.215686%);fill-opacity:1;" d="M 154.257812 11.238281 C 154.84375 11.8125 155.085938 12.445312 155.097656 13.257812 C 155.09375 14.019531 154.851562 14.652344 154.328125 15.210938 C 153.78125 15.722656 153.183594 15.929688 152.441406 15.921875 C 152.386719 15.917969 152.328125 15.917969 152.273438 15.917969 C 151.429688 15.898438 150.894531 15.5625 150.320312 14.960938 C 149.804688 14.351562 149.679688 13.679688 149.730469 12.898438 C 149.839844 12.148438 150.179688 11.546875 150.761719 11.0625 C 151.085938 10.832031 151.402344 10.65625 151.796875 10.574219 C 151.835938 10.566406 151.871094 10.558594 151.910156 10.550781 C 152.765625 10.40625 153.621094 10.652344 154.257812 11.238281 Z M 154.257812 11.238281 "/>
</g>
</svg>
